<svg width="375" height="40" viewBox="0 0 375 40" fill="none" xmlns="http://www.w3.org/2000/svg">
<g clip-path="url(#clip0_7_26)">
<path opacity="0.01" fill-rule="evenodd" clip-rule="evenodd" d="M0 40H375V0H0V40Z" fill="white"/>
<path opacity="0.5" fill-rule="evenodd" clip-rule="evenodd" d="M308.933 18.4063H309.852C310.486 18.4063 311 18.9213 311 19.5553V27.8253C311 28.4593 310.486 28.9743 309.852 28.9743H308.933C308.298 28.9743 307.785 28.4593 307.785 27.8253V19.5553C307.785 18.9213 308.298 18.4063 308.933 18.4063Z" fill="white"/>
<path fill-rule="evenodd" clip-rule="evenodd" d="M304.338 20.7036H305.257C305.892 20.7036 306.405 21.2176 306.405 21.8526V27.8256C306.405 28.4596 305.892 28.9746 305.257 28.9746H304.338C303.703 28.9746 303.19 28.4596 303.19 27.8256V21.8526C303.19 21.2176 303.703 20.7036 304.338 20.7036Z" fill="white"/>
<path fill-rule="evenodd" clip-rule="evenodd" d="M299.743 23.001H300.662C301.297 23.001 301.81 23.515 301.81 24.149V27.825C301.81 28.459 301.297 28.974 300.662 28.974H299.743C299.108 28.974 298.595 28.459 298.595 27.825V24.149C298.595 23.515 299.108 23.001 299.743 23.001Z" fill="white"/>
<path fill-rule="evenodd" clip-rule="evenodd" d="M295.148 24.3794H296.067C296.702 24.3794 297.215 24.8934 297.215 25.5274V27.8254C297.215 28.4594 296.702 28.9744 296.067 28.9744H295.148C294.514 28.9744 294 28.4594 294 27.8254V25.5274C294 24.8934 294.514 24.3794 295.148 24.3794Z" fill="white"/>
<path fill-rule="evenodd" clip-rule="evenodd" d="M323.784 25.0063C322.717 25.0063 321.827 25.7313 321.58 26.7053L323.888 28.9743L326.024 26.8743C325.844 25.8153 324.913 25.0063 323.784 25.0063Z" fill="white"/>
<path fill-rule="evenodd" clip-rule="evenodd" d="M323.784 21.7959C321.829 21.7959 320.114 22.7929 319.127 24.2949L320.551 25.6929C321.138 24.5139 322.358 23.6959 323.784 23.6959C325.264 23.6959 326.534 24.5729 327.092 25.8259L328.52 24.4219C327.548 22.8499 325.793 21.7959 323.784 21.7959Z" fill="white"/>
<path opacity="0.5" fill-rule="evenodd" clip-rule="evenodd" d="M323.784 18.4058C320.879 18.4058 318.302 19.7658 316.658 21.8678L318.09 23.2748C319.356 21.5248 321.432 20.3788 323.784 20.3788C326.189 20.3788 328.31 21.5738 329.567 23.3918L331 21.9848C329.36 19.8168 326.743 18.4058 323.784 18.4058Z" fill="white"/>
<path fill-rule="evenodd" clip-rule="evenodd" d="M348.972 27H340.029C339.185 27 338.5 26.316 338.5 25.472V21.528C338.5 20.685 339.185 20 340.029 20H348.972C349.816 20 350.5 20.685 350.5 21.528V25.472C350.5 26.316 349.816 27 348.972 27Z" fill="white"/>
<path opacity="0.5" fill-rule="evenodd" clip-rule="evenodd" d="M357.5 26.415C357.5 27.29 356.79 28 355.915 28H339.085C338.21 28 337.5 27.29 337.5 26.415V20.585C337.5 19.71 338.21 19 339.085 19H355.915C356.79 19 357.5 19.71 357.5 20.585V26.415ZM356.245 18H338.755C337.51 18 336.5 19.01 336.5 20.255V26.745C336.5 27.99 337.51 29 338.755 29H356.245C357.49 29 358.5 27.99 358.5 26.745V20.255C358.5 19.01 357.49 18 356.245 18Z" fill="white"/>
<path opacity="0.5" fill-rule="evenodd" clip-rule="evenodd" d="M359.25 25.5V21.5C360.078 21.5 360.75 22.172 360.75 23V24C360.75 24.829 360.078 25.5 359.25 25.5Z" fill="white"/>
<path d="M35.7021 17.336C33.417 17.336 31.7471 18.8668 31.7471 20.9981V21.0128C31.7471 22.9976 33.1826 24.4625 35.2114 24.4625C36.647 24.4625 37.7017 23.73 38.1191 22.7632H38.1558C38.1631 24.9019 37.4673 26.7256 35.6655 26.7256C34.7207 26.7256 34.0688 26.2569 33.7905 25.5318L33.7612 25.4659H31.8862L31.9082 25.5464C32.2378 27.1431 33.7026 28.2711 35.6582 28.2711C38.3462 28.2711 39.9648 26.1837 39.9648 22.69V22.6754C39.9648 18.9693 38.0312 17.336 35.7021 17.336ZM35.7021 23.0049C34.501 23.0049 33.6074 22.148 33.6074 20.9468V20.9322C33.6074 19.7896 34.5449 18.8814 35.7241 18.8814C36.9106 18.8814 37.8335 19.7969 37.8335 20.9688V20.9761C37.8335 22.1553 36.9106 23.0049 35.7021 23.0049ZM42.401 21.1739C42.9942 21.1739 43.4556 20.7051 43.4556 20.1119C43.4556 19.5186 42.9942 19.0572 42.401 19.0572C41.8077 19.0572 41.3389 19.5186 41.3389 20.1119C41.3389 20.7051 41.8077 21.1739 42.401 21.1739ZM42.401 26.5499C42.9942 26.5499 43.4556 26.0811 43.4556 25.4879C43.4556 24.8946 42.9942 24.4332 42.401 24.4332C41.8077 24.4332 41.3389 24.8946 41.3389 25.4879C41.3389 26.0811 41.8077 26.5499 42.401 26.5499ZM50.0226 28.088H51.8244V26.0591H53.2599V24.5064H51.8244V17.5191H49.1364L44.7492 24.4478V26.0591H50.0226V28.088ZM46.4484 24.5504V24.4991L50.008 18.9473H50.0519V24.5504H46.4484ZM57.1609 28.088H59.0139V17.5191H57.1462L54.385 19.46V21.1959L57.1169 19.3209H57.1609V28.088Z" fill="white"/>
</g>
<defs>
<clipPath id="clip0_7_26">
<rect width="375" height="40" fill="white"/>
</clipPath>
</defs>
</svg>
