<svg width="37" height="39" viewBox="0 0 37 39" fill="none" xmlns="http://www.w3.org/2000/svg">
<mask id="mask0_7_2" style="mask-type:luminance" maskUnits="userSpaceOnUse" x="0" y="0" width="37" height="39">
<path fill-rule="evenodd" clip-rule="evenodd" d="M0.21228 0.984009H36.3353V38.7109H0.21228V0.984009Z" fill="white"/>
</mask>
<g mask="url(#mask0_7_2)">
<path fill-rule="evenodd" clip-rule="evenodd" d="M27.1143 0.983887C22.0293 0.983887 17.8923 4.99689 17.8923 9.92889V19.2209H3.60028C1.72928 19.2209 0.21228 20.6919 0.21228 22.5079V35.4229C0.21228 37.2389 1.72928 38.7109 3.60028 38.7109H20.1403C22.0113 38.7109 23.5293 37.2389 23.5293 35.4229V22.5079C23.5293 20.8589 22.2763 19.4979 20.6443 19.2609V9.92889C20.6443 6.46889 23.5473 3.65289 27.1143 3.65289C30.6813 3.65289 33.5843 6.46889 33.5843 9.92889V15.8399C33.5843 16.5769 34.1993 17.1749 34.9593 17.1749C35.7183 17.1749 36.3353 16.5769 36.3353 15.8399V9.92889C36.3353 4.99689 32.1983 0.983887 27.1143 0.983887Z" fill="white"/>
</g>
</svg>
