<svg width="50" height="50" viewBox="0 0 50 50" fill="none" xmlns="http://www.w3.org/2000/svg">
<path opacity="0.3" fill-rule="evenodd" clip-rule="evenodd" d="M50 25C50 38.807 38.807 50 25 50C11.193 50 0 38.807 0 25C0 11.193 11.193 0 25 0C38.807 0 50 11.193 50 25Z" fill="black"/>
<path fill-rule="evenodd" clip-rule="evenodd" d="M30.903 22.696C31.292 22.696 31.607 22.377 31.607 21.984C31.607 21.591 31.292 21.272 30.903 21.272C30.514 21.272 30.199 21.591 30.199 21.984C30.199 22.377 30.514 22.696 30.903 22.696ZM15.408 18.425C15.408 18.031 15.72 17.713 16.112 17.713H17.522C17.911 17.713 18.225 18.029 18.225 18.425V19.136H15.408V18.425ZM24.917 30.528C22.777 30.528 21.043 28.775 21.043 26.612C21.043 24.449 22.777 22.696 24.917 22.696C27.055 22.696 28.79 24.449 28.79 26.612C28.79 28.775 27.055 30.528 24.917 30.528ZM24.917 31.595C27.639 31.595 29.846 29.364 29.846 26.612C29.846 23.86 27.639 21.628 24.917 21.628C22.193 21.628 19.986 23.86 19.986 26.612C19.986 29.364 22.193 31.595 24.917 31.595ZM19.172 20.204L20.963 17.562C21.201 17.252 21.712 17 22.096 17H27.737C28.124 17 28.632 17.252 28.87 17.562L30.662 20.204H34.425C35.203 20.204 35.833 20.84 35.833 21.626V31.953C35.833 32.738 35.203 33.375 34.425 33.375H15.407C14.63 33.375 14 32.74 14 31.953V21.626C14 20.841 14.63 20.204 15.407 20.204H19.172Z" fill="white"/>
</svg>
