<svg width="50" height="50" viewBox="0 0 50 50" fill="none" xmlns="http://www.w3.org/2000/svg">
<path opacity="0.3" fill-rule="evenodd" clip-rule="evenodd" d="M50 25C50 38.807 38.807 50 25 50C11.193 50 0 38.807 0 25C0 11.193 11.193 0 25 0C38.807 0 50 11.193 50 25Z" fill="black"/>
<path fill-rule="evenodd" clip-rule="evenodd" d="M29.0427 12C29.4457 12 29.7737 12.329 29.7737 12.734L29.7727 12.743H29.7737V13.463H29.0937C29.0864 13.4634 29.0791 13.4644 29.0718 13.4654C29.0621 13.4667 29.0524 13.468 29.0427 13.468H20.7317C20.7215 13.468 20.712 13.4667 20.7023 13.4654C20.6949 13.4644 20.6875 13.4634 20.6797 13.463H20.0007V12.743L20.0017 12.74L20.0007 12.734C20.0007 12.329 20.3277 12 20.7317 12H29.0427ZM23.074 23.943C23.074 22.938 23.886 22.123 24.887 22.123C25.888 22.123 26.7 22.938 26.7 23.943V26.127C26.7 27.132 25.888 27.947 24.887 27.947C23.886 27.947 23.074 27.132 23.074 26.127V23.943ZM20 15.873L20.038 15.939L20.002 15.878C20.002 15.878 20.288 16.82 20.949 17.955C21.45 18.816 21.919 19.382 22.138 19.627L22.255 19.833V36.002C22.255 36.862 22.95 37.56 23.807 37.56H25.967C26.824 37.56 27.519 36.862 27.519 36.002V19.81L27.605 19.658C27.808 19.436 28.3 18.857 28.826 17.95C29.488 16.816 29.773 15.873 29.773 15.873V14.59H20V15.873ZM24.7039 27.1734C25.3069 27.2754 25.8759 26.8674 25.9769 26.2624C26.0789 25.6574 25.6719 25.0854 25.0699 24.9844C24.4679 24.8824 23.8979 25.2904 23.7969 25.8954C23.6959 26.4994 24.1019 27.0714 24.7039 27.1734Z" fill="white"/>
</svg>
